<svg xmlns="http://www.w3.org/2000/svg" viewBox="0 0 128 128" role="img" aria-label="Cute panda with hearts">
  <defs>
    <filter id="shadow" x="-20%" y="-20%" width="140%" height="140%">
      <feDropShadow dx="0" dy="4" stdDeviation="4" flood-color="#d86ea1" flood-opacity="0.28"/>
    </filter>
  </defs>
  <g filter="url(#shadow)">
    <circle cx="40" cy="32" r="10" fill="#5a5f6d"/>
    <circle cx="88" cy="32" r="10" fill="#5a5f6d"/>
    <ellipse cx="64" cy="70" rx="37" ry="38" fill="#fffafc" stroke="#676c76" stroke-width="4"/>
    <ellipse cx="49" cy="60" rx="12" ry="15" fill="#676c76"/>
    <ellipse cx="79" cy="60" rx="12" ry="15" fill="#676c76"/>
    <circle cx="51" cy="58" r="3.6" fill="#ffffff"/>
    <circle cx="77" cy="58" r="3.6" fill="#ffffff"/>
    <ellipse cx="64" cy="96" rx="18" ry="16" fill="#676c76"/>
    <ellipse cx="43" cy="96" rx="11" ry="13" fill="#676c76"/>
    <ellipse cx="85" cy="96" rx="11" ry="13" fill="#676c76"/>
    <ellipse cx="64" cy="74" rx="6" ry="4.5" fill="#676c76"/>
    <path d="M58 81c2.2 4 9.8 4 12 0" fill="none" stroke="#676c76" stroke-width="4" stroke-linecap="round"/>
    <path d="M94 18c6-8 18-2 16 7-1 6-8 10-16 16-8-6-15-10-16-16-2-9 10-15 16-7Z" fill="#ffa8c7"/>
    <path d="M108 34c4-6 14-1 13 6-1 4-6 7-13 12-7-5-12-8-13-12-1-7 9-12 13-6Z" fill="#ff8fb8"/>
  </g>
</svg>
