<svg width="140" height="140" viewBox="0 0 140 140" xmlns="http://www.w3.org/2000/svg">
  <defs>
    <linearGradient id="pandaBg" x1="0" y1="0" x2="1" y2="1">
      <stop offset="0%" stop-color="#FFE9F5" />
      <stop offset="100%" stop-color="#FFC8E5" />
    </linearGradient>
  </defs>
  <rect x="8" y="8" width="124" height="124" rx="32" fill="url(#pandaBg)" />
  <circle cx="42" cy="42" r="14" fill="#2B2B35" />
  <circle cx="98" cy="42" r="14" fill="#2B2B35" />
  <circle cx="70" cy="72" r="42" fill="#FFFFFF" />
  <ellipse cx="53" cy="72" rx="10" ry="14" fill="#2B2B35" />
  <ellipse cx="87" cy="72" rx="10" ry="14" fill="#2B2B35" />
  <circle cx="54" cy="71" r="4.2" fill="#FFFFFF" />
  <circle cx="86" cy="71" r="4.2" fill="#FFFFFF" />
  <ellipse cx="70" cy="86" rx="8.5" ry="6.5" fill="#2B2B35" />
  <path d="M60 96c3 6 17 6 20 0" stroke="#2B2B35" stroke-width="4.2" stroke-linecap="round" fill="none" />
  <circle cx="52" cy="91" r="5" fill="#FF9FCB" opacity="0.65" />
  <circle cx="88" cy="91" r="5" fill="#FF9FCB" opacity="0.65" />
  <path d="M70 27c6 5 13 8 20 9" stroke="#F58BBE" stroke-width="4" stroke-linecap="round" fill="none" />
  <circle cx="95" cy="28" r="4.2" fill="#F58BBE" />
</svg>
