<svg xmlns="http://www.w3.org/2000/svg" viewBox="0 0 128 128" role="img" aria-label="Blushing panda">
  <defs>
    <filter id="shadow" x="-20%" y="-20%" width="140%" height="140%">
      <feDropShadow dx="0" dy="4" stdDeviation="4" flood-color="#d86ea1" flood-opacity="0.28"/>
    </filter>
  </defs>
  <g filter="url(#shadow)">
    <circle cx="38" cy="34" r="10" fill="#5c6170"/>
    <circle cx="90" cy="34" r="10" fill="#5c6170"/>
    <ellipse cx="64" cy="68" rx="37" ry="37" fill="#fffafc" stroke="#676c76" stroke-width="4"/>
    <ellipse cx="49" cy="58" rx="12" ry="15" fill="#676c76"/>
    <ellipse cx="79" cy="58" rx="12" ry="15" fill="#676c76"/>
    <path d="M47 60c2-4 8-4 10 0" fill="none" stroke="#ffffff" stroke-width="3.5" stroke-linecap="round"/>
    <path d="M71 60c2-4 8-4 10 0" fill="none" stroke="#ffffff" stroke-width="3.5" stroke-linecap="round"/>
    <ellipse cx="64" cy="74" rx="6" ry="4.5" fill="#676c76"/>
    <path d="M56 82c4 6 12 6 16 0" fill="none" stroke="#676c76" stroke-width="4" stroke-linecap="round"/>
    <ellipse cx="43" cy="77" rx="8" ry="5.5" fill="#ffb7d0"/>
    <ellipse cx="85" cy="77" rx="8" ry="5.5" fill="#ffb7d0"/>
    <path d="M24 26c6-8 18-3 17 6-1 5-7 9-14 14-7-5-13-9-14-14-1-9 11-14 17-6Z" fill="#ff9fc3"/>
  </g>
</svg>
