<svg width="140" height="140" viewBox="0 0 140 140" xmlns="http://www.w3.org/2000/svg">
  <defs>
    <linearGradient id="pengBg" x1="0" y1="0" x2="1" y2="1">
      <stop offset="0%" stop-color="#E8F4FF" />
      <stop offset="100%" stop-color="#D9E5FF" />
    </linearGradient>
  </defs>
  <rect x="8" y="8" width="124" height="124" rx="32" fill="url(#pengBg)" />
  <ellipse cx="70" cy="77" rx="39" ry="46" fill="#2A3B60" />
  <ellipse cx="70" cy="83" rx="27" ry="33" fill="#FFFFFF" />
  <ellipse cx="49" cy="57" rx="12" ry="9" fill="#FFFFFF" />
  <ellipse cx="91" cy="57" rx="12" ry="9" fill="#FFFFFF" />
  <circle cx="50" cy="57" r="4.8" fill="#26365B" />
  <circle cx="90" cy="57" r="4.8" fill="#26365B" />
  <circle cx="52" cy="55.5" r="1.6" fill="#FFFFFF" />
  <circle cx="92" cy="55.5" r="1.6" fill="#FFFFFF" />
  <path d="M70 67l11 7-11 6-11-6z" fill="#FFAF55" />
  <ellipse cx="56" cy="92" rx="5.4" ry="4.4" fill="#FFA0BF" opacity="0.55" />
  <ellipse cx="84" cy="92" rx="5.4" ry="4.4" fill="#FFA0BF" opacity="0.55" />
  <path d="M56 109c7 5 21 5 28 0" stroke="#26365B" stroke-width="3.8" stroke-linecap="round" fill="none" />
  <ellipse cx="38" cy="78" rx="8" ry="16" fill="#2A3B60" />
  <ellipse cx="102" cy="78" rx="8" ry="16" fill="#2A3B60" />
  <circle cx="70" cy="28" r="5.2" fill="#7D9EFF" />
  <path d="M70 32c3 4 7 7 12 8" stroke="#7D9EFF" stroke-width="3.4" stroke-linecap="round" fill="none" />
</svg>
