<svg xmlns="http://www.w3.org/2000/svg" viewBox="0 0 128 128" role="img" aria-label="Penguin with hearts">
  <defs>
    <filter id="shadow" x="-20%" y="-20%" width="140%" height="140%">
      <feDropShadow dx="0" dy="4" stdDeviation="4" flood-color="#d86ea1" flood-opacity="0.28"/>
    </filter>
  </defs>
  <g filter="url(#shadow)">
    <ellipse cx="64" cy="72" rx="36" ry="42" fill="#565d69"/>
    <ellipse cx="64" cy="79" rx="24" ry="29" fill="#fffaf4"/>
    <ellipse cx="49" cy="61" rx="7" ry="9" fill="#ffffff"/>
    <ellipse cx="79" cy="61" rx="7" ry="9" fill="#ffffff"/>
    <circle cx="49" cy="61" r="2.8" fill="#565d69"/>
    <circle cx="79" cy="61" r="2.8" fill="#565d69"/>
    <path d="M64 70l9 4-9 4-9-4 9-4Z" fill="#ffcb57"/>
    <path d="M57 84c4 5 10 5 14 0" fill="none" stroke="#565d69" stroke-width="4" stroke-linecap="round"/>
    <ellipse cx="44" cy="79" rx="7" ry="5" fill="#ffb5cc"/>
    <ellipse cx="84" cy="79" rx="7" ry="5" fill="#ffb5cc"/>
    <ellipse cx="42" cy="96" rx="10" ry="7" fill="#ffd15e"/>
    <ellipse cx="86" cy="96" rx="10" ry="7" fill="#ffd15e"/>
    <path d="M93 24c6-8 18-2 16 7-1 6-8 10-16 16-8-6-15-10-16-16-2-9 10-15 16-7Z" fill="#ffa5c5"/>
  </g>
</svg>
