<svg xmlns="http://www.w3.org/2000/svg" viewBox="0 0 128 128" role="img" aria-label="Blushing penguin">
  <defs>
    <filter id="shadow" x="-20%" y="-20%" width="140%" height="140%">
      <feDropShadow dx="0" dy="4" stdDeviation="4" flood-color="#d86ea1" flood-opacity="0.28"/>
    </filter>
  </defs>
  <g filter="url(#shadow)">
    <ellipse cx="64" cy="73" rx="36" ry="41" fill="#565d69"/>
    <ellipse cx="64" cy="80" rx="24" ry="28" fill="#fffaf4"/>
    <path d="M44 61c4-4 10-4 14 0" fill="none" stroke="#ffffff" stroke-width="3.5" stroke-linecap="round"/>
    <path d="M70 61c4-4 10-4 14 0" fill="none" stroke="#ffffff" stroke-width="3.5" stroke-linecap="round"/>
    <path d="M64 70l9 4-9 4-9-4 9-4Z" fill="#ffcb57"/>
    <path d="M56 84c4 6 12 6 16 0" fill="none" stroke="#565d69" stroke-width="4" stroke-linecap="round"/>
    <ellipse cx="44" cy="78" rx="8" ry="5.5" fill="#ffb8cf"/>
    <ellipse cx="84" cy="78" rx="8" ry="5.5" fill="#ffb8cf"/>
    <ellipse cx="42" cy="97" rx="10" ry="7" fill="#ffd15e"/>
    <ellipse cx="86" cy="97" rx="10" ry="7" fill="#ffd15e"/>
    <path d="M21 28c5-7 15-2 14 5-1 4-6 7-14 13-8-6-13-9-14-13-1-7 9-12 14-5Z" fill="#ffa2c4"/>
  </g>
</svg>
